<?xml version="1.0" encoding="UTF-8" standalone="no"?>
<svg
   xmlns:dc="http://purl.org/dc/elements/1.1/"
   xmlns:cc="http://creativecommons.org/ns#"
   xmlns:rdf="http://www.w3.org/1999/02/22-rdf-syntax-ns#"
   xmlns:svg="http://www.w3.org/2000/svg"
   xmlns="http://www.w3.org/2000/svg"
   xmlns:sodipodi="http://sodipodi.sourceforge.net/DTD/sodipodi-0.dtd"
   xmlns:inkscape="http://www.inkscape.org/namespaces/inkscape"
   width="297mm"
   height="210mm"
   version="1.1"
   viewBox="0 0 1052.3622 744.09448"
   id="svg25251"
   sodipodi:docname="pizza-2244559logo.svg"
   inkscape:version="0.92.2 5c3e80d, 2017-08-06">
  <metadata
     id="metadata25257">
    <rdf:RDF>
      <cc:Work
         rdf:about="">
        <dc:format>image/svg+xml</dc:format>
        <dc:type
           rdf:resource="http://purl.org/dc/dcmitype/StillImage" />
        <dc:title></dc:title>
        <dc:creator>
          <cc:Agent>
            <dc:title>j4p4n</dc:title>
          </cc:Agent>
        </dc:creator>
        <cc:license
           rdf:resource="http://creativecommons.org/publicdomain/zero/1.0/" />
      </cc:Work>
      <cc:License
         rdf:about="http://creativecommons.org/publicdomain/zero/1.0/">
        <cc:permits
           rdf:resource="http://creativecommons.org/ns#Reproduction" />
        <cc:permits
           rdf:resource="http://creativecommons.org/ns#Distribution" />
        <cc:permits
           rdf:resource="http://creativecommons.org/ns#DerivativeWorks" />
      </cc:License>
    </rdf:RDF>
  </metadata>
  <defs
     id="defs25255" />
  <sodipodi:namedview
     pagecolor="#ffffff"
     bordercolor="#666666"
     borderopacity="1"
     objecttolerance="10"
     gridtolerance="10"
     guidetolerance="10"
     inkscape:pageopacity="0"
     inkscape:pageshadow="2"
     inkscape:window-width="1436"
     inkscape:window-height="856"
     id="namedview25253"
     showgrid="false"
     inkscape:snap-global="false"
     inkscape:zoom="0.77"
     inkscape:cx="521.55894"
     inkscape:cy="433.8649"
     inkscape:window-x="4"
     inkscape:window-y="0"
     inkscape:window-maximized="1"
     inkscape:current-layer="g29730" />
  <g
     transform="translate(0 -308.27)"
     stroke="#000"
     id="g25249">
    <g
       aria-label="PIZZA"
       transform="scale(1.1939106,0.83758368)"
       style="font-style:normal;font-weight:normal;font-size:115.72011566px;line-height:1.25;font-family:sans-serif;letter-spacing:0px;word-spacing:0px;fill:#ffe728;fill-opacity:1;stroke:#000000;stroke-width:6.17071819;stroke-linecap:round;stroke-linejoin:round;stroke-miterlimit:4;stroke-dasharray:none;stroke-opacity:1"
       id="text29046">
      <g
         id="g29730">
        <g
           transform="matrix(0.99302048,0,0,1.363929,210.42606,-77.522569)"
           id="g25081"
           style="stroke-width:6.06549978" />
        <g
           id="g29787">
          <g
             style="stroke-width:8.49170017"
             id="g25065"
             transform="matrix(0.99302048,0,0,1.363929,-153.10882,246.02323)">
            <circle
               style="fill:#ff1100"
               id="circle25061"
               r="255"
               cy="416.73999"
               cx="606.76001" />
            <ellipse
               style="fill:#ffe728"
               id="ellipse25063"
               ry="194.41"
               rx="199.11"
               cy="371.92999"
               cx="608.35999" />
          </g>
          <ellipse
             style="font-style:normal;font-weight:normal;font-size:115.72011566px;line-height:1.25;font-family:sans-serif;letter-spacing:0px;word-spacing:0px;fill:#ffffff;fill-opacity:1;stroke:#000000;stroke-width:6.06549978;stroke-linecap:round;stroke-linejoin:round;stroke-miterlimit:4;stroke-dasharray:none;stroke-opacity:1"
             id="ellipse25067"
             ry="61.113998"
             rx="103.54"
             cy="709.41998"
             cx="239.41"
             transform="matrix(0.99302048,0,0,1.363929,210.42606,-77.522569)" />
          <ellipse
             style="font-style:normal;font-weight:normal;font-size:115.72011566px;line-height:1.25;font-family:sans-serif;letter-spacing:0px;word-spacing:0px;fill:#ffb280;fill-opacity:1;stroke:#000000;stroke-width:6.06549978;stroke-linecap:round;stroke-linejoin:round;stroke-miterlimit:4;stroke-dasharray:none;stroke-opacity:1"
             id="ellipse25069"
             ry="73.740997"
             rx="49.75"
             cy="599.31"
             cx="240.16"
             transform="matrix(0.99302048,0,0,1.363929,210.42606,-77.522569)" />
          <path
             style="font-style:normal;font-weight:normal;font-size:115.72011566px;line-height:1.25;font-family:sans-serif;letter-spacing:0px;word-spacing:0px;fill:#ffffff;fill-opacity:1;stroke:#000000;stroke-width:6.06549978;stroke-linecap:round;stroke-linejoin:round;stroke-miterlimit:4;stroke-dasharray:none;stroke-opacity:1"
             inkscape:connector-curvature="0"
             id="path25071"
             d="m 240.92,424.05 a 42.426,42.426 0 0 0 -41.949,36.43 42.426,42.426 0 0 0 -20.176,-5.1152 42.426,42.426 0 0 0 -42.426,42.428 42.426,42.426 0 0 0 42.426,42.426 42.426,42.426 0 0 0 10.607,-1.416 v 77.973 h 103.04 v -77.955 a 42.426,42.426 0 0 0 10.605,1.3984 42.426,42.426 0 0 0 42.428,-42.426 42.426,42.426 0 0 0 -42.428,-42.428 42.426,42.426 0 0 0 -20.164,5.1445 42.426,42.426 0 0 0 -41.959,-36.459 z"
             transform="matrix(0.99302048,0,0,1.363929,210.42606,-77.522569)" />
          <g
             style="font-style:normal;font-weight:normal;font-size:115.72011566px;line-height:1.25;font-family:sans-serif;letter-spacing:0px;word-spacing:0px;fill:#000000;fill-opacity:1;stroke:#000000;stroke-width:6.06549978;stroke-linecap:round;stroke-linejoin:round;stroke-miterlimit:4;stroke-dasharray:none;stroke-opacity:1;fill-rule:evenodd"
             id="g25077"
             transform="matrix(0.99302048,0,0,1.363929,206.33412,-72.277582)">
            <path
               style="fill:#000000;fill-opacity:1"
               inkscape:connector-curvature="0"
               id="path25073"
               d="m 246.66,634.18 c 0,0 13.42,-15.17 26.84,-10.956 13.42,4.2138 19.172,20.226 35.467,19.383 16.296,-0.84276 26.84,-17.698 26.84,-17.698 0,0 -1.9172,33.71 -46.97,37.081 -45.0528,3.371 -42.177,-27.811 -42.177,-27.811 z" />
            <path
               style="fill:#000000;fill-opacity:1"
               inkscape:connector-curvature="0"
               id="path25075"
               d="m 242.33,634.18 c 0,0 -13.42,-15.17 -26.84,-10.956 -13.42,4.2138 -19.172,20.226 -35.467,19.383 -16.296,-0.84276 -26.84,-17.698 -26.84,-17.698 0,0 1.9172,33.71 46.97,37.081 45.0528,3.371 42.177,-27.811 42.177,-27.811 z" />
          </g>
          <rect
             style="font-style:normal;font-weight:normal;font-size:115.72011566px;line-height:1.25;font-family:sans-serif;letter-spacing:0px;word-spacing:0px;fill:none;fill-opacity:1;stroke:#000000;stroke-width:6.06549978;stroke-linecap:round;stroke-linejoin:round;stroke-miterlimit:4;stroke-dasharray:none;stroke-opacity:1"
             id="rect25079"
             height="20.023001"
             width="103.04"
             y="596.75"
             x="189.39999"
             transform="matrix(0.99302048,0,0,1.363929,210.42606,-77.522569)" />
          <ellipse
             transform="matrix(0.83758367,0,0,1.1939106,0,-5.576272e-6)"
             cx="536.56293"
             cy="791.79187"
             rx="198.15746"
             ry="65.280434"
             id="ellipse25083"
             style="fill:#c97807;stroke-width:7.05897427;stroke-linecap:round" />
          <ellipse
             transform="matrix(0.83758367,0,0,1.1939106,0,-5.576272e-6)"
             cx="537.4165"
             cy="782.41278"
             rx="187.1553"
             ry="53.448547"
             id="ellipse25085"
             style="fill:#e03615;stroke-width:7.05897427;stroke-linecap:round" />
          <path
             transform="matrix(0.83758367,0,0,1.1939106,0,-5.576272e-6)"
             d="m 350.51967,780.08227 c 101.9087,-14.59879 279.19169,-10.97188 374.04976,1.9205"
             id="path25087"
             inkscape:connector-curvature="0"
             style="fill:none;stroke-width:4.23538494" />
          <path
             transform="matrix(0.83758367,0,0,1.1939106,0,-5.576272e-6)"
             d="M 538.68507,725.69238 V 837.46755"
             id="path25089"
             inkscape:connector-curvature="0"
             style="fill:none;stroke-width:4.23538494" />
          <path
             transform="matrix(0.83758367,0,0,1.1939106,0,-5.576272e-6)"
             d="m 429.44594,736.30532 c 73.78206,18.43956 130.88778,35.65103 216.39165,89.66164"
             id="path25091"
             inkscape:connector-curvature="0"
             style="fill:none;stroke-width:4.23538494" />
          <path
             transform="matrix(0.83758367,0,0,1.1939106,0,-5.576272e-6)"
             d="m 645.38707,737.11643 c -75.76316,20.04692 -154.78903,46.02406 -215.49061,89.37261"
             id="path25093"
             inkscape:connector-curvature="0"
             style="fill:none;stroke-width:4.23538494" />
          <ellipse
             transform="matrix(0.83758367,0,0,1.1939106,0,-5.576272e-6)"
             cx="451.46213"
             cy="784.44623"
             rx="12.279029"
             ry="4.4880514"
             id="ellipse25095"
             style="fill:#800000;fill-opacity:1;stroke-width:4.23538494;stroke-linecap:round" />
          <ellipse
             transform="matrix(0.83758367,0,0,1.1939106,0,-5.576272e-6)"
             cx="462.67767"
             cy="762.8205"
             rx="12.914497"
             ry="4.4880514"
             id="ellipse25097"
             style="fill:#800000;fill-opacity:1;stroke-width:4.23538494;stroke-linecap:round" />
          <ellipse
             transform="matrix(0.83758367,0,0,1.1939106,0,-5.576272e-6)"
             cx="422.03607"
             cy="756.29742"
             rx="11.220663"
             ry="3.6720314"
             id="ellipse25099"
             style="fill:#800000;fill-opacity:1;stroke-width:4.23538494;stroke-linecap:round" />
          <ellipse
             transform="matrix(0.83758367,0,0,1.1939106,0,-5.576272e-6)"
             cx="395.77554"
             cy="785.46301"
             rx="15.03194"
             ry="5.1000376"
             id="ellipse25101"
             style="fill:#800000;fill-opacity:1;stroke-width:4.23538494;stroke-linecap:round" />
          <ellipse
             transform="matrix(0.83758367,0,0,1.1939106,0,-5.576272e-6)"
             cx="425.62839"
             cy="806.07196"
             rx="14.39647"
             ry="6.119976"
             id="ellipse25103"
             style="fill:#800000;fill-opacity:1;stroke-width:4.23538494;stroke-linecap:round" />
          <ellipse
             transform="matrix(0.83758367,0,0,1.1939106,0,-5.576272e-6)"
             cx="505.86829"
             cy="798.12085"
             rx="13.761001"
             ry="5.1000376"
             id="ellipse25105"
             style="fill:#800000;fill-opacity:1;stroke-width:4.23538494;stroke-linecap:round" />
          <ellipse
             transform="matrix(0.83758367,0,0,1.1939106,0,-5.576272e-6)"
             cx="511.16782"
             cy="816.67352"
             rx="14.39647"
             ry="6.119976"
             id="ellipse25107"
             style="fill:#800000;fill-opacity:1;stroke-width:4.23538494;stroke-linecap:round" />
          <ellipse
             transform="matrix(0.83758367,0,0,1.1939106,0,-5.576272e-6)"
             cx="558.59094"
             cy="794.64789"
             rx="14.39647"
             ry="6.119976"
             id="ellipse25109"
             style="fill:#800000;fill-opacity:1;stroke-width:4.23538494;stroke-linecap:round" />
          <ellipse
             transform="matrix(0.83758367,0,0,1.1939106,0,-5.576272e-6)"
             cx="573.82562"
             cy="816.27368"
             rx="14.39647"
             ry="6.119976"
             id="ellipse25111"
             style="fill:#800000;stroke-width:4.23538494;stroke-linecap:round" />
          <ellipse
             transform="matrix(0.83758367,0,0,1.1939106,0,-5.576272e-6)"
             cx="616.17444"
             cy="817.49597"
             rx="14.39647"
             ry="6.119976"
             id="ellipse25113"
             style="fill:#800000;stroke-width:4.23538494;stroke-linecap:round" />
          <ellipse
             transform="matrix(0.83758367,0,0,1.1939106,0,-5.576272e-6)"
             cx="606.01404"
             cy="784.44623"
             rx="12.279029"
             ry="3.6720314"
             id="ellipse25115"
             style="fill:#800000;stroke-width:4.23538494;stroke-linecap:round" />
          <ellipse
             transform="matrix(0.83758367,0,0,1.1939106,0,-5.576272e-6)"
             cx="633.74469"
             cy="796.07593"
             rx="14.184251"
             ry="5.5079904"
             id="ellipse25117"
             style="fill:#800000;stroke-width:4.23538494;stroke-linecap:round" />
          <ellipse
             transform="matrix(0.83758367,0,0,1.1939106,0,-5.576272e-6)"
             cx="672.48938"
             cy="805.66071"
             rx="14.39647"
             ry="6.119976"
             id="ellipse25119"
             style="fill:#800000;stroke-width:4.23538494;stroke-linecap:round" />
          <ellipse
             transform="matrix(0.83758367,0,0,1.1939106,0,-5.576272e-6)"
             cx="671.00739"
             cy="785.46301"
             rx="12.491247"
             ry="4.2840176"
             id="ellipse25121"
             style="fill:#800000;stroke-width:4.23538494;stroke-linecap:round" />
          <ellipse
             transform="matrix(0.83758367,0,0,1.1939106,0,-5.576272e-6)"
             cx="600.71448"
             cy="759.55328"
             rx="13.337749"
             ry="4.4880514"
             id="ellipse25123"
             style="fill:#800000;stroke-width:4.23538494;stroke-linecap:round" />
          <ellipse
             transform="matrix(0.83758367,0,0,1.1939106,0,-5.576272e-6)"
             cx="638.81897"
             cy="754.45813"
             rx="14.607503"
             ry="4.2840176"
             id="ellipse25125"
             style="fill:#800000;stroke-width:4.23538494;stroke-linecap:round" />
          <ellipse
             transform="matrix(0.83758367,0,0,1.1939106,0,-5.576272e-6)"
             cx="679.25903"
             cy="766.08777"
             rx="14.819721"
             ry="4.4880514"
             id="ellipse25127"
             style="fill:#800000;stroke-width:4.23538494;stroke-linecap:round" />
          <ellipse
             transform="matrix(0.83758367,0,0,1.1939106,0,-5.576272e-6)"
             cx="581.87567"
             cy="743.03406"
             rx="8.8918324"
             ry="4.2840176"
             id="ellipse25129"
             style="fill:#800000;fill-opacity:1;stroke-width:4.23538494;stroke-linecap:round" />
          <ellipse
             transform="matrix(0.83758367,0,0,1.1939106,0,-5.576272e-6)"
             cx="511.36938"
             cy="744.87341"
             rx="10.797174"
             ry="4.4880514"
             id="ellipse25131"
             style="fill:#800000;fill-opacity:1;stroke-width:4.23538494;stroke-linecap:round" />
          <ellipse
             transform="matrix(0.83758367,0,0,1.1939106,0,-5.576272e-6)"
             cx="477.92422"
             cy="740.79498"
             rx="12.067995"
             ry="4.0799842"
             id="ellipse25133"
             style="fill:#800000;fill-opacity:1;stroke-width:4.23538494;stroke-linecap:round" />
          <ellipse
             transform="matrix(0.83758367,0,0,1.1939106,0,-5.576272e-6)"
             cx="553.7182"
             cy="741.60608"
             rx="12.491247"
             ry="5.3040709"
             id="ellipse25135"
             style="fill:#800000;fill-opacity:1;stroke-width:4.23538494;stroke-linecap:round" />
          <g
             style=""
             transform="matrix(-0.99302048,0,0,1.5106878,1045.03,138.8878)"
             id="g25143">
            <path
               d="m 310.88,559 80.097,9.8343 c 2.3128,0.28397 4.2061,1.8759 4.2061,4.2061 v 88.702 c 0,2.3302 -1.8933,4.4901 -4.2061,4.2061 l -80.097,-9.8343 c -2.3128,-0.28397 -4.2061,-1.8759 -4.2061,-4.2061 l 45.176,-44.658 -45.176,-44.044 c -1.6685,-1.6266 1.8933,-4.4901 4.2061,-4.2061 z"
               id="path25139"
               inkscape:connector-curvature="0"
               style="fill:#164300;stroke-width:7.86810017" />
            <path
               d="m 393.98,569.28 -19.775,13.691 0.86924,30.858 19.775,5.2154 c -1.8526,-8.6153 -0.86924,-49.764 -0.86924,-49.764 z"
               id="path25141"
               inkscape:connector-curvature="0"
               style="fill:none;stroke-width:8.29920006;stroke-linejoin:round" />
          </g>
          <path
             transform="matrix(0.83758367,0,0,1.1939106,0,-5.576272e-6)"
             d="m 194.02578,825.12544 94.96121,12.44361 c 2.74201,0.35931 4.98666,2.37362 4.98666,5.32209 v 112.23707 c 0,2.94847 -2.24465,5.68145 -4.98666,5.32209 l -94.96121,-12.44361 c -2.74201,-0.35931 -4.98666,-2.37362 -4.98666,-5.32209 l 53.55966,-56.50699 -53.55966,-55.73008 c -1.97814,-2.05818 2.24465,-5.68145 4.98666,-5.32209 z"
             id="path25145"
             inkscape:connector-curvature="0"
             style="fill:#164300;stroke-width:9.63687801" />
          <path
             transform="matrix(0.83758367,0,0,1.1939106,0,-5.576272e-6)"
             d="m 292.54728,838.133 -23.4448,17.3236 1.03055,39.04547 23.4448,6.59919 c -2.1964,-10.90117 -1.03055,-62.96775 -1.03055,-62.96775 z"
             id="path25147"
             inkscape:connector-curvature="0"
             style="fill:none;stroke-width:10.16489029;stroke-linejoin:round" />
          <path
             transform="matrix(0.83758367,0,0,1.1939106,0,-5.576272e-6)"
             d="m 273.49505,853.64592 c 0,0 176.66293,21.05757 265.36786,20.9981 87.24429,-0.0576 260.99307,-20.9981 260.99307,-20.9981 2.76263,0 4.98666,2.37362 4.98666,5.32209 v 112.23707 c 0,2.94847 -2.22403,5.32209 -4.98666,5.32209 0,0 -174.2325,20.96015 -261.71628,20.99811 -88.45595,0.0389 -264.6328,-20.99811 -264.6328,-20.99811 -2.76263,0 -4.98665,-2.37362 -4.98665,-5.32209 V 858.96801 c 0,-2.94847 2.22402,-5.32209 4.98665,-5.32209 z"
             id="path25149"
             inkscape:connector-curvature="0"
             style="fill:#328e00;stroke-width:9.63687801" />
          <path
             d="m 323.37225,1081.6964 q 0,5.6504 -1.97764,11.0747 -1.97764,5.3679 -5.65039,9.0407 -5.02886,4.9723 -11.24429,7.515 -6.15894,2.5427 -15.36908,2.5427 H 275.6264 v 27.4044 h -21.69752 v -84.1344 h 35.7105 q 8.02357,0 13.50445,1.4126 5.53739,1.3561 9.77519,4.1248 5.08535,3.3337 7.74104,8.5321 2.71219,5.1984 2.71219,12.4874 z m -22.43207,0.5085 q 0,-3.5597 -1.92114,-6.1024 -1.92113,-2.5992 -4.46381,-3.6163 -3.39024,-1.3561 -6.61096,-1.4691 -3.22073,-0.1695 -8.58861,-0.1695 h -3.72926 v 25.2008 h 6.21544 q 5.53739,0 9.09714,-0.6781 3.61625,-0.678 6.04592,-2.7122 2.09065,-1.8081 2.99471,-4.2943 0.96057,-2.5426 0.96057,-6.1589 z"
             style="font-weight:bold;fill:#ffe728;fill-opacity:1;stroke:#000000;stroke-width:6.17071819;stroke-linecap:round;stroke-linejoin:round;stroke-miterlimit:4;stroke-dasharray:none;stroke-opacity:1"
             id="path29626"
             inkscape:connector-curvature="0" />
          <path
             d="m 383.15073,1152.3565 h -49.27145 v -14.917 h 13.78696 v -54.3003 h -13.78696 v -14.9171 h 49.27145 v 14.9171 h -13.78696 v 54.3003 h 13.78696 z"
             style="font-weight:bold;fill:#ffe728;fill-opacity:1;stroke:#000000;stroke-width:6.17071819;stroke-linecap:round;stroke-linejoin:round;stroke-miterlimit:4;stroke-dasharray:none;stroke-opacity:1"
             id="path29628"
             inkscape:connector-curvature="0" />
          <path
             d="m 473.12404,1162.5319 h -70.68646 v -15.7646 l 41.92594,-52.0967 h -39.8918 v -16.2731 h 66.39216 v 16.0471 l -41.86944,51.8142 h 44.1296 z"
             style="font-weight:bold;fill:#ffe728;fill-opacity:1;stroke:#000000;stroke-width:6.17071819;stroke-linecap:round;stroke-linejoin:round;stroke-miterlimit:4;stroke-dasharray:none;stroke-opacity:1"
             id="path29630"
             inkscape:connector-curvature="0" />
          <path
             d="m 561.29193,1152.3565 h -70.68646 v -15.7646 l 41.92594,-52.0967 h -39.8918 v -16.2731 h 66.39216 v 16.0471 l -41.86944,51.8142 h 44.1296 z"
             style="font-weight:bold;fill:#ffe728;fill-opacity:1;stroke:#000000;stroke-width:6.17071819;stroke-linecap:round;stroke-linejoin:round;stroke-miterlimit:4;stroke-dasharray:none;stroke-opacity:1"
             id="path29632"
             inkscape:connector-curvature="0" />
          <path
             d="m 660.13364,1137.8203 h -22.43207 l -5.81991,-17.0077 h -31.19019 l -5.8199,17.0077 h -21.86704 l 31.07718,-84.1344 h 24.97475 z m -33.50685,-32.4333 -10.34022,-30.1731 -10.34023,30.1731 z"
             style="font-weight:bold;fill:#ffe728;fill-opacity:1;stroke:#000000;stroke-width:6.17071819;stroke-linecap:round;stroke-linejoin:round;stroke-miterlimit:4;stroke-dasharray:none;stroke-opacity:1"
             id="path29634"
             inkscape:connector-curvature="0" />
        </g>
      </g>
    </g>
  </g>
</svg>
